# xmcd CD database file
#
# Track frame offsets:
#	150
#	12527
#	27351
#	44227
#	58918
#	71593
#	92523
#	104903
#	127871
#	140113
#	153827
#	169064
#	186217
#	199278
#
# Disc length: 2923 seconds
#
# Revision: 1
# Processed by: cddbd v1.5.1PL2 Copyright (c) Steve Scherf et al.
# Submitted via: CDex 1.51
#
DISCID=d30b690e
DTITLE=Mr Music - Country 3 - 2006
DYEAR=2006
DGENRE=Country
TTITLE0=LeLand Martin - Girl On The Billboard
TTITLE1=Darryl Lee Rush - Town Too Tough To Die
TTITLE2=Martina McBride - Today I Started Loving You Again
TTITLE3=Clint Moody - All We Need
TTITLE4=Annie Sims - You Don't Have To Tell Me Twice
TTITLE5=Bill Payne - It's A Wonder We Made It This Far
TTITLE6=Irene Kelly - Scorns Of Time
TTITLE7=Kenny Chesney - Like Me
TTITLE8=Paulette Carlson - Where Ya Comin' From
TTITLE9=Jay P. Mayton - Seat Belts On The Barstool
TTITLE10=Rosanne Cash and Bobby Bare - No Memories Hangin' Around
TTITLE11=Bo Göran Svenson - The Magic Is There
TTITLE12=Kasey Cambers - A Little Bitt Lonesom
TTITLE13=L.M. Stone - That's What They Say
EXTD=YEAR: 2006
EXTT0=
EXTT1=
EXTT2=
EXTT3=
EXTT4=
EXTT5=
EXTT6=
EXTT7=
EXTT8=
EXTT9=
EXTT10=
EXTT11=
EXTT12=
EXTT13=
PLAYORDER=
